<svg width="204" height="61" viewBox="0 0 204 61" fill="none" xmlns="http://www.w3.org/2000/svg">
<g filter="url(#filter0_d_0_8)">
<path d="M4 24.389C4 10.919 14.9192 0 28.3887 0H170.716C184.186 0 195.105 10.919 195.105 24.389C195.105 37.858 184.186 48.777 170.716 48.777H28.3887C14.9192 48.777 4 37.858 4 24.389Z" fill="url(#paint0_linear_0_8)"/>
<path d="M50.827 32.755V15.301H57.219C58.458 15.301 59.484 15.505 60.296 15.915C61.109 16.318 61.716 16.866 62.12 17.559C62.523 18.247 62.725 19.023 62.725 19.886C62.725 20.613 62.591 21.227 62.324 21.727C62.057 22.221 61.699 22.619 61.251 22.92C60.807 23.216 60.319 23.432 59.785 23.568V23.738C60.364 23.767 60.93 23.954 61.481 24.301C62.038 24.642 62.498 25.128 62.861 25.758C63.225 26.389 63.407 27.156 63.407 28.059C63.407 28.952 63.197 29.753 62.776 30.463C62.361 31.167 61.719 31.727 60.85 32.142C59.981 32.551 58.87 32.755 57.518 32.755H50.827ZM53.461 30.497H57.262C58.523 30.497 59.427 30.253 59.972 29.764C60.518 29.275 60.79 28.665 60.79 27.932C60.79 27.38 60.651 26.875 60.373 26.415C60.094 25.954 59.697 25.588 59.18 25.315C58.668 25.042 58.06 24.906 57.356 24.906H53.461V30.497ZM53.461 22.852H56.989C57.58 22.852 58.111 22.738 58.583 22.511C59.06 22.284 59.438 21.966 59.716 21.557C60.001 21.142 60.143 20.653 60.143 20.091C60.143 19.369 59.89 18.764 59.384 18.275C58.878 17.787 58.103 17.542 57.057 17.542H53.461V22.852ZM71.84 33.02C70.613 33.02 69.542 32.738 68.627 32.176C67.712 31.613 67.002 30.827 66.496 29.815C65.991 28.804 65.738 27.622 65.738 26.27C65.738 24.912 65.991 23.724 66.496 22.707C67.002 21.69 67.712 20.9 68.627 20.338C69.542 19.775 70.613 19.494 71.84 19.494C73.067 19.494 74.138 19.775 75.053 20.338C75.968 20.9 76.678 21.69 77.184 22.707C77.689 23.724 77.942 24.912 77.942 26.27C77.942 27.622 77.689 28.804 77.184 29.815C76.678 30.827 75.968 31.613 75.053 32.176C74.138 32.738 73.067 33.02 71.84 33.02ZM71.849 30.88C72.644 30.88 73.303 30.67 73.826 30.25C74.349 29.829 74.735 29.27 74.985 28.571C75.241 27.872 75.368 27.102 75.368 26.261C75.368 25.426 75.241 24.659 74.985 23.96C74.735 23.255 74.349 22.69 73.826 22.264C73.303 21.838 72.644 21.625 71.849 21.625C71.047 21.625 70.383 21.838 69.854 22.264C69.332 22.69 68.942 23.255 68.687 23.96C68.437 24.659 68.312 25.426 68.312 26.261C68.312 27.102 68.437 27.872 68.687 28.571C68.942 29.27 69.332 29.829 69.854 30.25C70.383 30.67 71.047 30.88 71.849 30.88ZM90.596 22.861L88.287 23.27C88.19 22.974 88.037 22.693 87.827 22.426C87.622 22.159 87.344 21.94 86.991 21.77C86.639 21.599 86.199 21.514 85.67 21.514C84.949 21.514 84.346 21.676 83.864 22C83.381 22.318 83.139 22.73 83.139 23.236C83.139 23.673 83.301 24.025 83.625 24.292C83.949 24.559 84.471 24.778 85.193 24.949L87.273 25.426C88.477 25.704 89.375 26.133 89.966 26.713C90.557 27.292 90.852 28.045 90.852 28.971C90.852 29.755 90.625 30.454 90.17 31.068C89.721 31.676 89.094 32.153 88.287 32.5C87.486 32.846 86.557 33.02 85.5 33.02C84.034 33.02 82.838 32.707 81.912 32.082C80.986 31.452 80.417 30.557 80.207 29.398L82.67 29.023C82.824 29.665 83.139 30.15 83.616 30.48C84.094 30.804 84.716 30.966 85.483 30.966C86.318 30.966 86.986 30.792 87.486 30.446C87.986 30.094 88.236 29.665 88.236 29.159C88.236 28.75 88.082 28.406 87.775 28.128C87.474 27.849 87.011 27.639 86.386 27.497L84.17 27.011C82.949 26.733 82.045 26.29 81.46 25.682C80.881 25.074 80.591 24.304 80.591 23.372C80.591 22.599 80.807 21.923 81.239 21.344C81.67 20.764 82.267 20.312 83.028 19.988C83.79 19.659 84.662 19.494 85.645 19.494C87.06 19.494 88.173 19.801 88.986 20.415C89.798 21.023 90.335 21.838 90.596 22.861ZM96.202 24.983V32.755H93.654V15.301H96.168V21.795H96.33C96.637 21.091 97.106 20.531 97.736 20.116C98.367 19.702 99.191 19.494 100.208 19.494C101.106 19.494 101.89 19.679 102.56 20.048C103.236 20.417 103.759 20.969 104.128 21.702C104.503 22.429 104.691 23.338 104.691 24.429V32.755H102.143V24.736C102.143 23.775 101.895 23.031 101.401 22.503C100.907 21.969 100.219 21.702 99.339 21.702C98.736 21.702 98.197 21.829 97.719 22.085C97.248 22.341 96.876 22.716 96.603 23.21C96.336 23.699 96.202 24.29 96.202 24.983ZM110.64 15.301V32.755H108.091V15.301H110.64ZM117.878 33.045C117.048 33.045 116.298 32.892 115.628 32.585C114.957 32.273 114.426 31.821 114.034 31.23C113.648 30.639 113.454 29.915 113.454 29.057C113.454 28.318 113.596 27.71 113.881 27.233C114.165 26.755 114.548 26.378 115.031 26.099C115.514 25.821 116.054 25.611 116.65 25.469C117.247 25.327 117.855 25.219 118.474 25.145C119.258 25.054 119.895 24.98 120.383 24.923C120.872 24.861 121.227 24.761 121.449 24.625C121.67 24.488 121.781 24.267 121.781 23.96V23.9C121.781 23.156 121.571 22.579 121.15 22.17C120.736 21.761 120.116 21.557 119.292 21.557C118.435 21.557 117.758 21.747 117.264 22.128C116.775 22.503 116.437 22.92 116.25 23.38L113.855 22.835C114.139 22.04 114.554 21.398 115.099 20.909C115.65 20.415 116.284 20.057 117 19.835C117.716 19.608 118.469 19.494 119.258 19.494C119.781 19.494 120.335 19.557 120.92 19.682C121.511 19.801 122.062 20.023 122.574 20.346C123.091 20.67 123.514 21.133 123.844 21.736C124.173 22.332 124.338 23.108 124.338 24.062V32.755H121.849V30.966H121.747C121.582 31.295 121.335 31.619 121.006 31.937C120.676 32.255 120.253 32.52 119.736 32.73C119.219 32.94 118.599 33.045 117.878 33.045ZM118.432 31C119.136 31 119.739 30.861 120.239 30.582C120.744 30.304 121.128 29.94 121.389 29.491C121.656 29.037 121.79 28.551 121.79 28.034V26.346C121.699 26.437 121.523 26.523 121.261 26.602C121.006 26.676 120.713 26.741 120.383 26.798C120.054 26.849 119.733 26.898 119.42 26.943C119.108 26.983 118.846 27.017 118.636 27.045C118.142 27.108 117.69 27.213 117.281 27.361C116.878 27.508 116.554 27.721 116.31 28C116.071 28.273 115.952 28.636 115.952 29.091C115.952 29.721 116.185 30.199 116.65 30.523C117.116 30.841 117.71 31 118.432 31ZM137.542 22.861L135.232 23.27C135.136 22.974 134.982 22.693 134.772 22.426C134.567 22.159 134.289 21.94 133.937 21.77C133.584 21.599 133.144 21.514 132.616 21.514C131.894 21.514 131.292 21.676 130.809 22C130.326 22.318 130.084 22.73 130.084 23.236C130.084 23.673 130.246 24.025 130.57 24.292C130.894 24.559 131.417 24.778 132.138 24.949L134.218 25.426C135.422 25.704 136.32 26.133 136.911 26.713C137.502 27.292 137.797 28.045 137.797 28.971C137.797 29.755 137.57 30.454 137.116 31.068C136.667 31.676 136.039 32.153 135.232 32.5C134.431 32.846 133.502 33.02 132.445 33.02C130.979 33.02 129.783 32.707 128.857 32.082C127.931 31.452 127.363 30.557 127.153 29.398L129.616 29.023C129.769 29.665 130.084 30.15 130.562 30.48C131.039 30.804 131.661 30.966 132.428 30.966C133.263 30.966 133.931 30.792 134.431 30.446C134.931 30.094 135.181 29.665 135.181 29.159C135.181 28.75 135.028 28.406 134.721 28.128C134.42 27.849 133.957 27.639 133.332 27.497L131.116 27.011C129.894 26.733 128.991 26.29 128.405 25.682C127.826 25.074 127.536 24.304 127.536 23.372C127.536 22.599 127.752 21.923 128.184 21.344C128.616 20.764 129.212 20.312 129.974 19.988C130.735 19.659 131.607 19.494 132.59 19.494C134.005 19.494 135.118 19.801 135.931 20.415C136.743 21.023 137.28 21.838 137.542 22.861ZM143.148 24.983V32.755H140.599V15.301H143.114V21.795H143.275C143.582 21.091 144.051 20.531 144.682 20.116C145.312 19.702 146.136 19.494 147.153 19.494C148.051 19.494 148.835 19.679 149.506 20.048C150.182 20.417 150.704 20.969 151.074 21.702C151.449 22.429 151.636 23.338 151.636 24.429V32.755H149.088V24.736C149.088 23.775 148.841 23.031 148.346 22.503C147.852 21.969 147.165 21.702 146.284 21.702C145.682 21.702 145.142 21.829 144.665 22.085C144.193 22.341 143.821 22.716 143.548 23.21C143.281 23.699 143.148 24.29 143.148 24.983Z" fill="white"/>
</g>
<defs>
<filter id="filter0_d_0_8" x="0" y="0" width="203.105" height="60.777" filterUnits="userSpaceOnUse" color-interpolation-filters="sRGB">
<feFlood flood-opacity="0" result="BackgroundImageFix"/>
<feColorMatrix in="SourceAlpha" type="matrix" values="0 0 0 0 0 0 0 0 0 0 0 0 0 0 0 0 0 0 127 0" result="hardAlpha"/>
<feOffset dx="2" dy="6"/>
<feGaussianBlur stdDeviation="3"/>
<feComposite in2="hardAlpha" operator="out"/>
<feColorMatrix type="matrix" values="0 0 0 0 0 0 0 0 0 0 0 0 0 0 0 0 0 0 0.5 0"/>
<feBlend mode="normal" in2="BackgroundImageFix" result="effect1_dropShadow_0_8"/>
<feBlend mode="normal" in="SourceGraphic" in2="effect1_dropShadow_0_8" result="shape"/>
</filter>
<linearGradient id="paint0_linear_0_8" x1="184.247" y1="24.389" x2="-54.6344" y2="24.389" gradientUnits="userSpaceOnUse">
<stop offset="0.119792" stop-color="#1A7ED8"/>
<stop offset="0.40625" stop-color="#4A9EE9"/>
<stop offset="0.78125" stop-color="#7EFAEA"/>
<stop offset="1" stop-color="#452B8F" stop-opacity="0"/>
</linearGradient>
</defs>
</svg>
